<svg xmlns="http://www.w3.org/2000/svg" xmlns:xlink="http://www.w3.org/1999/xlink" viewBox="0 0 234.49 233.18"><defs><style>.cls-1{opacity:0.4;}.cls-2,.cls-3{fill:#fff;}.cls-3{opacity:0.2;}.cls-4{fill:#f4767a;}.cls-5{fill:#ed5561;}.cls-6{fill:#bbcee1;}.cls-7{fill:#d8395a;}.cls-8{fill:#933e31;}.cls-9{fill:#1c75bc;}.cls-10{fill:#9d4d36;}.cls-11{fill:#a7bcce;}.cls-12{fill:#2a87c6;}.cls-13{fill:#e8ebf5;}.cls-14{fill:#0f4463;}.cls-15{fill:#0b3b56;}.cls-16{fill:#1f5e77;}.cls-17{fill:#07304b;}.cls-18{fill:url(#linear-gradient);}.cls-19{fill:#fed4bd;}.cls-20{fill:#f4c5a2;}.cls-21{fill:#de495a;}.cls-22{fill:#ef4136;}.cls-23{fill:#91a6b7;}.cls-24{fill:#79ff68;}.cls-25{fill:#50e85e;}.cls-26{fill:#3cc743;}.cls-27{fill:#9263c1;}.cls-28{fill:#8444b2;}.cls-29{fill:#7231a3;}.cls-30{fill:#ffa8e1;}.cls-31{fill:#ff7ad2;}.cls-32{fill:#de64c6;}.cls-33{fill:#fcec32;}.cls-34{fill:#f5d012;}.cls-35{fill:#eaa10c;}.cls-36{fill:#edf0f8;}.cls-37{fill:#f0cec9;}.cls-38{fill:#fffbf0;}.cls-39{fill:#f5ddd8;}.cls-40{fill:#dfbab8;}</style><linearGradient id="linear-gradient" x1="87.3" y1="132.44" x2="104.57" y2="75.64" gradientUnits="userSpaceOnUse"><stop offset="0" stop-color="#1c75bc"/><stop offset="0.28" stop-color="#2077bc"/><stop offset="0.54" stop-color="#2b7ebc"/><stop offset="0.8" stop-color="#3e88bc"/><stop offset="1" stop-color="#5394bc"/></linearGradient></defs><title>Ресурс 2</title><g id="Слой_2" data-name="Слой 2"><g id="Режим_изоляции" data-name="Режим изоляции"><g class="cls-1"><polygon class="cls-2" points="112.83 28.51 112.83 29.58 117.33 32.17 117.33 31.1 112.83 28.51"/><polygon class="cls-2" points="112.83 30.46 112.83 31.54 117.33 34.13 117.33 33.06 112.83 30.46"/><polygon class="cls-2" points="112.83 32.42 112.83 33.49 117.33 36.09 117.33 35.02 112.83 32.42"/><polygon class="cls-2" points="146.77 55.02 146.77 53.95 119.02 37.94 119.02 39.01 146.77 55.02"/><polygon class="cls-2" points="112.83 34.38 112.83 35.45 117.33 38.04 117.33 36.97 112.83 34.38"/><polygon class="cls-2" points="112.83 36.33 112.83 37.4 117.33 40 117.33 38.92 112.83 36.33"/><polygon class="cls-2" points="146.77 56.98 146.77 55.91 119.02 39.9 119.02 40.97 146.77 56.98"/><polygon class="cls-2" points="112.83 42.2 112.83 43.27 117.33 45.86 117.33 44.79 112.83 42.2"/><polygon class="cls-2" points="112.83 44.15 112.83 45.22 117.33 47.82 117.33 46.75 112.83 44.15"/><polygon class="cls-2" points="112.83 51.98 112.83 53.05 117.33 55.64 117.33 54.57 112.83 51.98"/><polygon class="cls-2" points="112.83 53.93 112.83 55 117.33 57.59 117.33 56.52 112.83 53.93"/><polygon class="cls-2" points="136.52 67.6 119.02 57.5 119.02 58.57 136.52 68.67 136.52 67.6"/><polygon class="cls-2" points="137.45 68.13 137.45 69.2 146.77 74.58 146.77 73.51 137.45 68.13"/><polygon class="cls-2" points="127.81 60.62 119.02 55.54 119.02 56.61 127.81 61.69 127.81 60.62"/><polygon class="cls-2" points="128.74 61.15 128.74 62.22 146.77 72.62 146.77 71.55 128.74 61.15"/><polygon class="cls-2" points="144.4 64.32 144.4 65.39 146.77 66.75 146.77 65.68 144.4 64.32"/><polygon class="cls-2" points="131.49 54.91 119.02 47.72 119.02 48.79 131.49 55.98 131.49 54.91"/><polygon class="cls-2" points="126.38 36.32 119.02 32.08 119.02 33.15 126.38 37.39 126.38 36.32"/><polygon class="cls-2" points="138.44 43.28 127.3 36.85 127.3 37.92 138.44 44.35 138.44 43.28"/><polygon class="cls-2" points="131.95 41.49 124.1 36.97 124.1 38.04 131.95 42.56 131.95 41.49"/><polygon class="cls-2" points="140.18 46.24 132.87 42.02 132.87 43.09 140.18 47.31 140.18 46.24"/><polygon class="cls-2" points="141.1 46.77 141.1 47.84 146.77 51.11 146.77 50.04 141.1 46.77"/><polygon class="cls-2" points="120.47 36.82 120.47 37.89 126.38 41.3 126.38 40.23 120.47 36.82"/><polygon class="cls-2" points="144.46 50.66 127.3 40.77 127.3 41.84 144.46 51.73 144.46 50.66"/><polygon class="cls-2" points="134.63 50.86 123.42 44.4 123.42 45.47 134.63 51.93 134.63 50.86"/><polygon class="cls-2" points="144.46 56.53 135.56 51.4 135.56 52.47 144.46 57.6 144.46 56.53"/><polygon class="cls-2" points="143.47 61.83 132.41 55.45 132.41 56.52 143.47 62.9 143.47 61.83"/><polygon class="cls-2" points="137.45 60.31 137.45 61.38 143.47 64.85 143.47 63.78 137.45 60.31"/><polygon class="cls-2" points="121.19 50.93 119.02 49.68 119.02 50.75 121.19 52 121.19 50.93"/><polygon class="cls-2" points="125.25 53.27 125.25 54.34 136.52 60.84 136.52 59.77 125.25 53.27"/><polygon class="cls-2" points="124.33 52.74 122.11 51.46 122.11 52.53 124.33 53.81 124.33 52.74"/><polygon class="cls-2" points="134.44 60.53 122.11 53.42 122.11 54.49 134.44 61.6 134.44 60.53"/></g><g class="cls-1"><polygon class="cls-2" points="136.81 10.8 118.16 0 118.16 0.95 136.81 11.75 136.81 10.8"/><polygon class="cls-2" points="118.16 2.81 146.77 19.36 146.77 18.41 118.16 1.86 118.16 2.81"/><polygon class="cls-2" points="138.06 11.5 138.06 12.45 146.77 17.5 146.77 16.55 138.06 11.5"/><polygon class="cls-2" points="136.81 14.43 118.16 3.63 118.16 4.58 136.81 15.38 136.81 14.43"/><polygon class="cls-2" points="118.16 6.45 146.77 22.99 146.77 22.04 118.16 5.5 118.16 6.45"/><polygon class="cls-2" points="138.06 16.08 146.77 21.13 146.77 20.18 138.06 15.14 138.06 16.08"/><polygon class="cls-2" points="136.81 20.43 118.16 9.63 118.16 10.58 136.81 21.38 136.81 20.43"/><polygon class="cls-2" points="118.16 12.45 146.77 28.99 146.77 28.04 118.16 11.5 118.16 12.45"/><polygon class="cls-2" points="138.06 22.08 146.77 27.13 146.77 26.18 138.06 21.14 138.06 22.08"/><polygon class="cls-2" points="136.81 24.07 118.16 13.27 118.16 14.22 136.81 25.02 136.81 24.07"/><polygon class="cls-2" points="118.16 16.08 146.77 32.63 146.77 31.68 118.16 15.13 118.16 16.08"/><polygon class="cls-2" points="138.06 25.72 146.77 30.76 146.77 29.82 138.06 24.77 138.06 25.72"/><polygon class="cls-2" points="136.81 30.07 118.16 19.27 118.16 20.22 136.81 31.02 136.81 30.07"/><polygon class="cls-2" points="118.16 22.08 146.77 38.63 146.77 37.68 118.16 21.13 118.16 22.08"/><polygon class="cls-2" points="138.06 31.72 146.77 36.76 146.77 35.81 138.06 30.77 138.06 31.72"/><polygon class="cls-2" points="136.81 33.7 118.16 22.9 118.16 23.85 136.81 34.65 136.81 33.7"/><polygon class="cls-2" points="118.16 25.71 146.77 42.26 146.77 41.31 118.16 24.76 118.16 25.71"/><polygon class="cls-2" points="138.06 35.35 146.77 40.4 146.77 39.45 138.06 34.4 138.06 35.35"/></g><path class="cls-3" d="M86.5,24.38l-13.93-8a1,1,0,0,0-1.53.89V33.9a2.27,2.27,0,0,0,1.14,2l13.93,8.05a1,1,0,0,0,1.56-.9V26.41A2.33,2.33,0,0,0,86.5,24.38Z"/><path class="cls-4" d="M80.32,38.47,62.06,27.93a1.73,1.73,0,0,0-1.83.07h0l-4,2.32,1.86,2.53.7.79v18.1a3,3,0,0,0,1.5,2.61L74,62.25l.14.76,2.79,3.91,4.29-2.52h0l0,0h0a1.37,1.37,0,0,0,.66-1.18v-22A3.12,3.12,0,0,0,80.32,38.47Z"/><path class="cls-5" d="M76.05,41,57.57,30.32a1.35,1.35,0,0,0-2,1.17V53.61a3,3,0,0,0,1.51,2.61L75.53,66.9a1.38,1.38,0,0,0,2.08-1.2v-22A3.12,3.12,0,0,0,76.05,41Z"/><path class="cls-6" d="M76.91,66.91h0Z"/><path class="cls-7" d="M77.61,65.7v-22a3.18,3.18,0,0,0-.21-1.07l4.28-2.46a2.89,2.89,0,0,1,.2,1v22a1.37,1.37,0,0,1-.66,1.18h0l0,0h0l-4.25,2.5A1.38,1.38,0,0,0,77.61,65.7Z"/><path class="cls-2" d="M59.94,40.9l-2.25-1.29,0,8.08,1.49.86V45.68l.64.37a2.54,2.54,0,0,0,2,.48c.47-.2.71-.72.71-1.59a4,4,0,0,0-.66-2.28A5.76,5.76,0,0,0,59.94,40.9Zm.75,3.94a1.41,1.41,0,0,1-1-.28l-.49-.28V41.87l.68.4a2.51,2.51,0,0,1,.89.8A2,2,0,0,1,61,44.13C61,44.53,60.92,44.76,60.69,44.84Z"/><polygon class="cls-2" points="67.75 48.59 64.97 46.98 64.98 43.81 63.48 42.95 63.46 51.04 64.95 51.9 64.96 48.41 67.75 50.02 67.74 53.51 69.23 54.37 69.25 46.28 67.76 45.42 67.75 48.59"/><path class="cls-2" d="M74.82,50.13a5.63,5.63,0,0,0-1.94-1.75l-2.25-1.3,0,8.08L72.1,56V53.15l.64.37a2.5,2.5,0,0,0,2,.48c.47-.19.71-.72.71-1.59A4,4,0,0,0,74.82,50.13Zm-1.19,2.18a1.37,1.37,0,0,1-1-.28l-.49-.28v-2.4l.68.39a2.54,2.54,0,0,1,.9.8A2.07,2.07,0,0,1,74,51.6C74,52,73.86,52.23,73.63,52.31Z"/><g class="cls-1"><polygon class="cls-2" points="37.19 39.29 37.19 40.36 41.69 42.96 41.69 41.89 37.19 39.29"/><polygon class="cls-2" points="37.19 41.25 37.19 42.32 41.69 44.91 41.69 43.84 37.19 41.25"/><polygon class="cls-2" points="37.19 43.2 37.19 44.27 41.69 46.87 41.69 45.8 37.19 43.2"/><polygon class="cls-2" points="71.13 65.8 71.13 64.73 43.38 48.73 43.38 49.8 71.13 65.8"/><polygon class="cls-2" points="37.19 45.16 37.19 46.23 41.69 48.82 41.69 47.75 37.19 45.16"/><polygon class="cls-2" points="37.19 47.11 37.19 48.19 41.69 50.78 41.69 49.71 37.19 47.11"/><polygon class="cls-2" points="71.13 67.76 71.13 66.69 43.38 50.68 43.38 51.75 71.13 67.76"/><polygon class="cls-2" points="37.19 52.98 37.19 54.05 41.69 56.65 41.69 55.58 37.19 52.98"/><polygon class="cls-2" points="37.19 54.94 37.19 56.01 41.69 58.6 41.69 57.53 37.19 54.94"/><polygon class="cls-2" points="37.19 62.76 37.19 63.83 41.69 66.42 41.69 65.35 37.19 62.76"/><polygon class="cls-2" points="37.19 64.71 37.19 65.78 41.69 68.38 41.69 67.31 37.19 64.71"/><polygon class="cls-2" points="60.88 78.38 43.38 68.28 43.38 69.35 60.88 79.45 60.88 78.38"/><polygon class="cls-2" points="61.81 78.91 61.81 79.98 71.13 85.36 71.13 84.29 61.81 78.91"/><polygon class="cls-2" points="52.17 71.4 43.38 66.33 43.38 67.4 52.17 72.47 52.17 71.4"/><polygon class="cls-2" points="53.09 71.93 53.09 73 71.13 83.4 71.13 82.33 53.09 71.93"/><polygon class="cls-2" points="68.76 75.1 68.76 76.17 71.13 77.54 71.13 76.47 68.76 75.1"/><polygon class="cls-2" points="55.84 65.7 43.38 58.5 43.38 59.57 55.84 66.77 55.84 65.7"/><polygon class="cls-2" points="50.74 47.1 43.38 42.86 43.38 43.93 50.74 48.17 50.74 47.1"/><polygon class="cls-2" points="62.8 54.06 51.66 47.64 51.66 48.71 62.8 55.13 62.8 54.06"/><polygon class="cls-2" points="56.31 52.27 48.46 47.75 48.46 48.82 56.31 53.34 56.31 52.27"/><polygon class="cls-2" points="64.54 57.02 57.23 52.81 57.23 53.88 64.54 58.09 64.54 57.02"/><polygon class="cls-2" points="65.46 57.55 65.46 58.62 71.13 61.89 71.13 60.82 65.46 57.55"/><polygon class="cls-2" points="44.83 47.61 44.83 48.68 50.74 52.09 50.74 51.02 44.83 47.61"/><polygon class="cls-2" points="68.82 61.44 51.66 51.55 51.66 52.62 68.82 62.52 68.82 61.44"/><polygon class="cls-2" points="58.99 61.65 47.78 55.18 47.78 56.25 58.99 62.72 58.99 61.65"/><polygon class="cls-2" points="68.82 67.31 59.92 62.18 59.92 63.25 68.82 68.38 68.82 67.31"/><polygon class="cls-2" points="67.83 72.61 56.77 66.23 56.77 67.3 67.83 73.68 67.83 72.61"/><polygon class="cls-2" points="61.81 71.09 61.81 72.16 67.83 75.64 67.83 74.57 61.81 71.09"/><polygon class="cls-2" points="45.55 61.71 43.38 60.46 43.38 61.53 45.55 62.78 45.55 61.71"/><polygon class="cls-2" points="49.61 64.06 49.61 65.13 60.88 71.63 60.88 70.56 49.61 64.06"/><polygon class="cls-2" points="48.69 63.52 46.47 62.24 46.47 63.31 48.69 64.59 48.69 63.52"/><polygon class="cls-2" points="58.8 71.31 46.47 64.2 46.47 65.27 58.8 72.38 58.8 71.31"/></g><path class="cls-3" d="M171.29,53.21l-13.93-8a1,1,0,0,0-1.53.88V62.73a2.28,2.28,0,0,0,1.13,2l13.93,8a1,1,0,0,0,1.57-.9V55.24A2.35,2.35,0,0,0,171.29,53.21Z"/><path class="cls-3" d="M190.31,21l-13.93-8a1,1,0,0,0-1.53.89V30.5a2.27,2.27,0,0,0,1.14,2l13.93,8.05a1,1,0,0,0,1.56-.9V23A2.33,2.33,0,0,0,190.31,21Z"/><path class="cls-3" d="M233.32,108.16l-13.93-8a1,1,0,0,0-1.53.89v16.67a2.27,2.27,0,0,0,1.14,2l13.92,8a1,1,0,0,0,1.57-.9V110.19A2.33,2.33,0,0,0,233.32,108.16Z"/><path class="cls-3" d="M112.07,67.14l-13.92-8a1,1,0,0,0-1.53.88V76.66a2.28,2.28,0,0,0,1.13,2l13.93,8.05a1,1,0,0,0,1.57-.91V69.17A2.34,2.34,0,0,0,112.07,67.14Z"/><path class="cls-8" d="M59.64,204.16c-3.7,0-2.49-2.77-2.49-2.77-5.48-1.68-8.18-.75-8.18-.74a25.44,25.44,0,0,0-.87,8.93c0,.58.4.93.94,1.13,3,1.1,5.64,1.83,11.13,1.29,4-.39,8.33-4.14,7.36-8C66.92,201.62,63.39,204.13,59.64,204.16Z"/><path class="cls-9" d="M58.05,169.4c-1.08-1.41-2.94-2.61-6-1.8L19,174l1.24,8.49a13.17,13.17,0,0,0,13.93,4.14,51.63,51.63,0,0,0,14.62-6.67l-1.12,23.43a13.17,13.17,0,0,0,9.81-1.18c.77-.47,1.49-23.06,1.73-28.86A5.31,5.31,0,0,0,58.05,169.4Z"/><path class="cls-10" d="M75.51,210.94c-3.84,0-2.58-2.88-2.58-2.88-5.7-1.74-8.5-.77-8.5-.77a26.55,26.55,0,0,0-.91,9.28c0,.6.42,1,1,1.17,3.07,1.14,5.86,1.9,11.56,1.34,4.2-.41,8.65-4.29,7.64-8.29C83.07,208.31,79.4,210.9,75.51,210.94Z"/><polygon class="cls-6" points="37.93 201.62 9.55 185.21 9.55 189.21 37.94 205.57 37.93 201.62"/><polygon class="cls-2" points="35.35 170.39 9.55 185.21 37.93 201.62 63.76 186.78 35.35 170.39"/><polygon class="cls-11" points="63.76 186.78 37.93 201.62 37.94 205.57 63.76 190.63 63.76 186.78"/><path class="cls-12" d="M73.86,174.84c-1.12-1.46-3-2.71-6.25-1.86L33.28,179.6l1.29,8.82A13.68,13.68,0,0,0,49,192.72a53.45,53.45,0,0,0,15.18-6.93l-1.16,24.33a13.66,13.66,0,0,0,10.18-1.23c.81-.48,1.56-23.94,1.8-30A5.5,5.5,0,0,0,73.86,174.84Z"/><path class="cls-13" d="M12.52,125.18l58.62-34a8,8,0,0,1,8,0l92.34,53.42a3.53,3.53,0,0,1,0,6.12L114.21,184a9.55,9.55,0,0,1-9.55,0l-92.13-53.3A3.17,3.17,0,0,1,12.52,125.18Z"/><path class="cls-11" d="M12.53,130.67,104.66,184a9.55,9.55,0,0,0,9.55,0l57.31-33.27a3.49,3.49,0,0,0,1.76-3.05v4.47h0a3.49,3.49,0,0,1-1.75,3l-57.31,33.27a9.53,9.53,0,0,1-9.55,0l-92.13-53.3a3.14,3.14,0,0,1-1.59-2.76h0v-4.38A3.14,3.14,0,0,0,12.53,130.67Z"/><path class="cls-6" d="M12.53,130.67,104.66,184a9.57,9.57,0,0,0,4.36,1.25v4.41a9.45,9.45,0,0,1-4.36-1.25l-92.13-53.3a3.14,3.14,0,0,1-1.59-2.76h0v-4.38A3.14,3.14,0,0,0,12.53,130.67Z"/><path class="cls-14" d="M55.83,137.49l10-5.76a1.51,1.51,0,0,1,1.51,0L98,149.5a.67.67,0,0,1,0,1.15l-9.71,5.62a1.79,1.79,0,0,1-1.79,0L55.83,138.52A.6.6,0,0,1,55.83,137.49Z"/><path class="cls-15" d="M55.83,138.52l30.69,17.75a1.79,1.79,0,0,0,1.79,0L98,150.65a.66.66,0,0,0,.33-.57v1.17h0a.67.67,0,0,1-.33.56l-9.71,5.62a1.79,1.79,0,0,1-1.79,0L55.83,139.7a.55.55,0,0,1-.29-.52h0V138A.59.59,0,0,0,55.83,138.52Z"/><polygon class="cls-16" points="65.67 133.35 66.91 132.63 68.33 133.44 67.09 134.16 65.67 133.35"/><polygon class="cls-16" points="67.43 134.37 68.68 133.64 70.09 134.46 68.85 135.18 67.43 134.37"/><polygon class="cls-16" points="69.2 135.38 70.44 134.66 71.86 135.48 70.62 136.2 69.2 135.38"/><polygon class="cls-16" points="70.96 136.4 72.21 135.68 73.63 136.49 72.38 137.21 70.96 136.4"/><polygon class="cls-16" points="72.73 137.42 73.98 136.69 75.39 137.51 74.15 138.23 72.73 137.42"/><polygon class="cls-16" points="74.5 138.43 75.74 137.71 77.16 138.53 75.92 139.25 74.5 138.43"/><polygon class="cls-16" points="76.26 139.45 77.51 138.73 78.92 139.54 77.68 140.26 76.26 139.45"/><polygon class="cls-16" points="78.03 140.47 79.27 139.74 80.69 140.56 79.45 141.28 78.03 140.47"/><polygon class="cls-16" points="79.79 141.48 81.04 140.76 82.45 141.58 81.21 142.3 79.79 141.48"/><polygon class="cls-16" points="81.56 142.5 82.81 141.78 84.22 142.59 82.98 143.31 81.56 142.5"/><polygon class="cls-16" points="83.33 143.51 84.57 142.79 85.99 143.61 84.75 144.33 83.33 143.51"/><polygon class="cls-16" points="85.09 144.53 86.34 143.81 87.75 144.63 86.51 145.34 85.09 144.53"/><polygon class="cls-16" points="88.1 144.82 89.52 145.64 88.28 146.36 86.86 145.55 88.1 144.82"/><polygon class="cls-16" points="65.47 135.1 64.06 134.28 65.3 133.56 66.72 134.38 65.47 135.1"/><polygon class="cls-16" points="68.48 135.39 67.24 136.11 65.82 135.3 67.07 134.58 68.48 135.39"/><polygon class="cls-16" points="70.25 136.41 69.01 137.13 67.59 136.32 68.83 135.59 70.25 136.41"/><polygon class="cls-16" points="72.01 137.43 70.77 138.15 69.35 137.33 70.6 136.61 72.01 137.43"/><polygon class="cls-16" points="73.78 138.44 72.54 139.16 71.12 138.35 72.36 137.63 73.78 138.44"/><polygon class="cls-16" points="75.55 139.46 74.3 140.18 72.88 139.37 74.13 138.64 75.55 139.46"/><polygon class="cls-16" points="77.31 140.48 76.07 141.2 74.65 140.38 75.9 139.66 77.31 140.48"/><polygon class="cls-16" points="79.08 141.49 77.84 142.21 76.42 141.4 77.66 140.68 79.08 141.49"/><polygon class="cls-16" points="80.84 142.51 79.6 143.23 78.18 142.42 79.43 141.69 80.84 142.51"/><polygon class="cls-16" points="82.61 143.53 81.37 144.25 79.95 143.43 81.19 142.71 82.61 143.53"/><polygon class="cls-16" points="84.38 144.54 83.13 145.26 81.71 144.45 82.96 143.73 84.38 144.54"/><polygon class="cls-16" points="86.14 145.56 84.9 146.28 83.48 145.47 84.72 144.74 86.14 145.56"/><polygon class="cls-16" points="86.49 145.76 87.91 146.57 86.67 147.3 85.25 146.48 86.49 145.76"/><polygon class="cls-16" points="63.86 136.03 62.44 135.22 63.69 134.5 65.1 135.31 63.86 136.03"/><polygon class="cls-16" points="66.87 136.33 65.63 137.05 64.21 136.23 65.45 135.51 66.87 136.33"/><polygon class="cls-16" points="65.97 137.25 67.22 136.53 68.64 137.34 67.39 138.06 65.97 137.25"/><polygon class="cls-16" points="70.4 138.36 69.16 139.08 67.74 138.27 68.99 137.54 70.4 138.36"/><polygon class="cls-16" points="72.17 139.38 70.93 140.1 69.51 139.28 70.75 138.56 72.17 139.38"/><polygon class="cls-16" points="73.93 140.39 72.69 141.11 71.27 140.3 72.52 139.58 73.93 140.39"/><polygon class="cls-16" points="75.7 141.41 74.46 142.13 73.04 141.32 74.28 140.59 75.7 141.41"/><polygon class="cls-16" points="77.47 142.43 76.22 143.15 74.8 142.33 76.05 141.61 77.47 142.43"/><polygon class="cls-16" points="79.23 143.44 77.99 144.16 76.57 143.35 77.82 142.63 79.23 143.44"/><polygon class="cls-16" points="81 144.46 79.76 145.18 78.34 144.37 79.58 143.64 81 144.46"/><polygon class="cls-16" points="82.76 145.48 81.52 146.2 80.1 145.38 81.35 144.66 82.76 145.48"/><polygon class="cls-16" points="81.87 146.4 83.11 145.68 84.53 146.49 83.29 147.21 81.87 146.4"/><polygon class="cls-16" points="84.88 146.69 86.3 147.51 85.05 148.23 83.63 147.41 84.88 146.69"/><polygon class="cls-16" points="62.25 136.97 60.83 136.15 62.08 135.43 63.49 136.25 62.25 136.97"/><polygon class="cls-16" points="62.6 137.17 63.84 136.44 65.26 137.26 64.02 137.98 62.6 137.17"/><polygon class="cls-16" points="64.36 138.18 65.61 137.46 67.02 138.28 65.78 139 64.36 138.18"/><polygon class="cls-16" points="66.13 139.2 67.38 138.48 68.79 139.29 67.55 140.01 66.13 139.2"/><polygon class="cls-16" points="67.89 140.22 69.14 139.49 70.56 140.31 69.31 141.03 67.89 140.22"/><polygon class="cls-16" points="69.66 141.23 70.91 140.51 72.32 141.33 71.08 142.05 69.66 141.23"/><polygon class="cls-16" points="71.43 142.25 72.67 141.53 74.09 142.34 72.85 143.06 71.43 142.25"/><polygon class="cls-16" points="73.19 143.27 74.44 142.54 75.85 143.36 74.61 144.08 73.19 143.27"/><polygon class="cls-16" points="74.96 144.28 76.2 143.56 77.62 144.38 76.38 145.1 74.96 144.28"/><polygon class="cls-16" points="76.72 145.3 77.97 144.58 79.39 145.39 78.14 146.11 76.72 145.3"/><polygon class="cls-16" points="78.49 146.32 79.74 145.59 81.15 146.41 79.91 147.13 78.49 146.32"/><polygon class="cls-16" points="80.26 147.33 81.5 146.61 82.92 147.43 81.68 148.15 80.26 147.33"/><polygon class="cls-16" points="83.27 147.63 84.68 148.44 83.44 149.16 82.02 148.35 83.27 147.63"/><polygon class="cls-16" points="60.64 137.9 59.22 137.09 60.47 136.36 61.88 137.18 60.64 137.9"/><polygon class="cls-16" points="60.98 138.1 62.23 137.38 63.65 138.19 62.41 138.91 60.98 138.1"/><polygon class="cls-16" points="62.75 139.12 64 138.4 65.41 139.21 64.17 139.93 62.75 139.12"/><polygon class="cls-16" points="64.52 140.13 65.76 139.41 67.18 140.23 65.94 140.95 64.52 140.13"/><polygon class="cls-16" points="66.28 141.15 67.53 140.43 68.94 141.25 67.7 141.97 66.28 141.15"/><polygon class="cls-16" points="68.05 142.17 69.3 141.44 70.71 142.26 69.47 142.98 68.05 142.17"/><polygon class="cls-16" points="69.81 143.18 71.06 142.46 72.48 143.28 71.23 144 69.81 143.18"/><polygon class="cls-16" points="71.58 144.2 72.83 143.48 74.24 144.29 73 145.01 71.58 144.2"/><polygon class="cls-16" points="73.35 145.22 74.59 144.49 76.01 145.31 74.77 146.03 73.35 145.22"/><polygon class="cls-16" points="75.11 146.23 76.36 145.51 77.77 146.33 76.53 147.05 75.11 146.23"/><polygon class="cls-16" points="76.88 147.25 78.12 146.53 79.54 147.34 78.3 148.06 76.88 147.25"/><polygon class="cls-16" points="78.64 148.27 79.89 147.54 81.31 148.36 80.06 149.08 78.64 148.27"/><polygon class="cls-16" points="81.66 148.56 83.07 149.38 81.83 150.1 80.41 149.28 81.66 148.56"/><polygon class="cls-16" points="58.85 137.3 60.27 138.11 59.03 138.83 57.61 138.02 58.85 137.3"/><polygon class="cls-16" points="62.03 139.13 60.79 139.85 59.37 139.03 60.62 138.31 62.03 139.13"/><polygon class="cls-16" points="63.8 140.15 62.56 140.87 61.14 140.05 62.38 139.33 63.8 140.15"/><polygon class="cls-16" points="65.57 141.16 64.33 141.88 62.91 141.07 64.15 140.34 65.57 141.16"/><polygon class="cls-16" points="67.33 142.18 66.09 142.9 64.67 142.08 65.92 141.36 67.33 142.18"/><polygon class="cls-16" points="69.1 143.19 67.86 143.91 66.44 143.1 67.68 142.38 69.1 143.19"/><polygon class="cls-16" points="69.45 143.4 71.21 144.41 71.22 144.41 71.56 144.61 72.98 145.43 72.98 145.43 73.7 145.84 74.75 146.44 74.75 146.44 75.86 147.09 77.93 148.28 76.69 149 74.53 147.75 73.5 147.17 73.5 147.17 72.43 146.55 71.73 146.15 71.74 146.15 70.34 145.35 69.97 145.13 69.97 145.13 68.2 144.12 69.45 143.4"/><polygon class="cls-16" points="79.69 149.29 78.45 150.01 77.03 149.2 78.28 148.48 79.69 149.29"/><polygon class="cls-16" points="81.46 150.31 80.22 151.03 78.8 150.22 80.04 149.49 81.46 150.31"/><polygon class="cls-16" points="90.39 147.58 91.63 146.86 93.05 147.67 91.81 148.39 90.39 147.58"/><polygon class="cls-16" points="92.16 148.6 93.4 147.87 94.82 148.69 93.57 149.41 92.16 148.6"/><polygon class="cls-16" points="93.92 149.61 95.17 148.89 96.58 149.71 95.34 150.43 93.92 149.61"/><polygon class="cls-16" points="91.44 148.61 90.2 149.33 88.78 148.51 90.02 147.79 91.44 148.61"/><polygon class="cls-16" points="93.2 149.62 91.96 150.34 90.54 149.53 91.79 148.81 93.2 149.62"/><polygon class="cls-16" points="94.97 150.64 93.73 151.36 92.31 150.55 93.55 149.82 94.97 150.64"/><polygon class="cls-16" points="89.83 149.54 88.58 150.26 87.17 149.45 88.41 148.72 89.83 149.54"/><polygon class="cls-16" points="91.59 150.56 90.35 151.28 88.93 150.46 90.18 149.74 91.59 150.56"/><polygon class="cls-16" points="93.36 151.57 92.12 152.29 90.7 151.48 91.94 150.76 93.36 151.57"/><polygon class="cls-16" points="85.55 150.38 86.8 149.66 88.22 150.47 86.97 151.19 85.55 150.38"/><polygon class="cls-16" points="87.32 151.4 88.56 150.67 89.98 151.49 88.74 152.21 87.32 151.4"/><polygon class="cls-16" points="89.08 152.41 90.33 151.69 91.75 152.51 90.5 153.23 89.08 152.41"/><polygon class="cls-16" points="83.94 151.31 85.19 150.59 86.6 151.41 85.36 152.13 83.94 151.31"/><polygon class="cls-16" points="85.71 152.33 86.95 151.61 88.37 152.42 87.13 153.14 85.71 152.33"/><polygon class="cls-16" points="87.47 153.35 88.72 152.62 90.14 153.44 88.89 154.16 87.47 153.35"/><polygon class="cls-16" points="84.99 152.34 83.75 153.06 82.33 152.25 83.58 151.53 84.99 152.34"/><polygon class="cls-16" points="86.76 153.36 85.52 154.08 84.1 153.26 85.34 152.54 86.76 153.36"/><path class="cls-16" d="M77.9,127.94l9.79-5.68a1.34,1.34,0,0,1,1.34,0l23.22,13.4a.59.59,0,0,1,0,1l-9.57,5.56a1.61,1.61,0,0,1-1.59,0L77.9,128.86A.53.53,0,0,1,77.9,127.94Z"/><path class="cls-17" d="M77.9,128.86l23.19,13.38a1.61,1.61,0,0,0,1.59,0l9.57-5.56a.59.59,0,0,0,.29-.51v1.19h0a.57.57,0,0,1-.29.49l-9.57,5.56a1.56,1.56,0,0,1-1.59,0L77.9,130.05a.53.53,0,0,1-.26-.46h0V128.4A.53.53,0,0,0,77.9,128.86Z"/><path class="cls-15" d="M77.9,128.86l23.19,13.38a1.54,1.54,0,0,0,.72.21v1.19a1.54,1.54,0,0,1-.72-.21L77.9,130.05a.53.53,0,0,1-.26-.46h0V128.4A.53.53,0,0,0,77.9,128.86Z"/><polygon class="cls-14" points="103.29 128.84 85.25 118.39 85.25 127.33 103.29 137.77 103.29 128.84"/><polygon class="cls-17" points="87.76 116.95 85.25 118.39 103.29 128.84 105.81 127.39 87.76 116.95"/><polygon class="cls-17" points="105.81 127.39 103.29 128.84 103.29 137.77 105.81 136.31 105.81 127.39"/><polygon class="cls-18" points="67 72.89 121.86 104.71 121.86 145.07 67 113.13 67 72.89"/><polygon class="cls-17" points="121.86 104.71 123.68 103.6 123.68 143.97 121.86 145.07 121.86 104.71"/><polygon class="cls-16" points="67 72.89 68.87 71.81 123.68 103.6 121.86 104.71 67 72.89"/><path class="cls-15" d="M67,72.89v40.24l54.85,31.94V104.71Zm53.55,69.92L68.3,112.38V75.15l52.26,30.31Z"/><path class="cls-19" d="M46.69,122.73c-.56,5.76-4.82,10.06-9.5,9.6s-8-5.51-7.43-11.27,4.82-10.07,9.49-9.61S47.26,117,46.69,122.73Z"/><path class="cls-20" d="M53.68,136.17s2,.49,2.74.56,3.38.63,4.47.29-1-1.05-1.47-1.43-.48-1.32.62-1.65,3.6-.17,4.92-.36S63.65,129.4,61.5,129a9.09,9.09,0,0,0-5.89.79c-1.83.91-2.83,2.43-3.68,2.73Z"/><path class="cls-5" d="M53.92,130.72,40,134.21l-.7,8.83,16.42-5.62C56.07,134.29,53.92,130.72,53.92,130.72Z"/><path class="cls-5" d="M19.62,134.46s-3.85,4.85,0,11.52c0,0,2.69,3.72,10.07.08Z"/><path class="cls-21" d="M31,128.8s6-.41,10.69,2.88A3.62,3.62,0,0,0,43,133.3c.94.62,5.61,2.49,5.61,2.49s-2.06,27.38.3,40.7c0,0-10.13,7.92-26,0,0,0-2.31-33.61-3.33-42C19.62,134.46,22.26,131.2,31,128.8Z"/><polygon class="cls-6" points="28.38 173.99 0 157.58 9.55 185.25 37.94 201.62 28.38 173.99"/><polygon class="cls-2" points="3.13 155.76 0 157.58 28.38 173.99 31.55 172.15 3.13 155.76"/><polygon class="cls-11" points="31.55 172.15 28.38 173.99 37.94 201.62 41.14 199.78 31.55 172.15"/><path class="cls-20" d="M72.38,148.29s1.55-1.56,2.14-2,2.68-2.41,3.84-2.67-.82,1.76-1.06,2.39,1.19-.5,2.28-.91a5.33,5.33,0,0,1,3.72.13c2.69,1,2.56,6.33.36,5.69-3.61-1-5.23,1.82-7.39,2.43a23.29,23.29,0,0,1-3,.56Z"/><path class="cls-5" d="M48.61,135.79l11.73,15.55,12.2-3.6s2.62,3.3,1.77,6.8L58,160.88,44.8,146.32S40.37,137.09,48.61,135.79Z"/><path class="cls-10" d="M42.07,106.53s.9,2.16-3.42,2.75S29,112,27.59,116.57c-.9,2.92.15,6,1.61,8.59a17,17,0,0,0,1.71,2.5,9.3,9.3,0,0,0,6.37-1.1,11.06,11.06,0,0,0,3.43-4.18s2.57,1.07,3.37-1.07c.59-1.57,2.45-2,3.46-2.82C47.54,118.49,53.37,109,42.07,106.53Z"/><polygon class="cls-6" points="203.15 189.34 184.34 178.43 184.34 185.47 203.15 196.35 203.15 189.34"/><polygon class="cls-2" points="203.78 167.26 184.34 178.43 203.15 189.34 222.61 178.16 203.78 167.26"/><polygon class="cls-11" points="222.61 178.16 203.15 189.34 203.15 196.35 222.61 185.09 222.61 178.16"/><polygon class="cls-6" points="203.15 177.84 184.34 166.92 184.34 173.96 203.15 184.84 203.15 177.84"/><polygon class="cls-2" points="203.78 155.75 184.34 166.92 203.15 177.84 222.61 166.65 203.78 155.75"/><polygon class="cls-11" points="222.61 166.65 203.15 177.84 203.15 184.84 222.61 173.58 222.61 166.65"/><polygon class="cls-6" points="171.34 207.76 152.54 196.84 152.54 203.88 171.35 214.76 171.34 207.76"/><polygon class="cls-2" points="171.98 185.68 152.54 196.84 171.34 207.76 190.81 196.57 171.98 185.68"/><polygon class="cls-11" points="190.81 196.57 171.34 207.76 171.35 214.76 190.81 203.5 190.81 196.57"/><polygon class="cls-6" points="171.34 196.25 152.54 185.34 152.54 192.37 171.35 203.26 171.34 196.25"/><polygon class="cls-2" points="171.98 174.17 152.54 185.34 171.34 196.25 190.81 185.07 171.98 174.17"/><polygon class="cls-11" points="190.81 185.07 171.34 196.25 171.35 203.26 190.81 192 190.81 185.07"/><polygon class="cls-6" points="139.54 226.17 120.74 215.26 120.74 222.29 139.54 233.18 139.54 226.17"/><polygon class="cls-2" points="140.18 204.09 120.74 215.26 139.54 226.17 159.01 214.99 140.18 204.09"/><polygon class="cls-11" points="159.01 214.99 139.54 226.17 139.54 233.18 159.01 221.92 159.01 214.99"/><polygon class="cls-6" points="139.54 214.66 120.74 203.75 120.74 210.79 139.54 221.67 139.54 214.66"/><polygon class="cls-2" points="140.18 192.58 120.74 203.75 139.54 214.66 159.01 203.48 140.18 192.58"/><polygon class="cls-11" points="159.01 203.48 139.54 214.66 139.54 221.67 159.01 210.41 159.01 203.48"/><path class="cls-9" d="M145.41,207.77l-1.18-.68a11.11,11.11,0,0,1-2.77.66v1H138.6v-1a11.33,11.33,0,0,1-2.77-.66l-1.17.68-2-1.17,1.18-.69a3.7,3.7,0,0,1-1.16-1.6H131v-1.66h1.66a3.81,3.81,0,0,1,1.14-1.61l-1.18-.68,2-1.17,1.18.68a10.79,10.79,0,0,1,2.77-.66v-1h2.87v1a10.89,10.89,0,0,1,2.77.66l1.17-.68,2,1.17-1.18.69a3.64,3.64,0,0,1,1.16,1.6H149v1.66h-1.66a3.73,3.73,0,0,1-1.14,1.6l1.18.69ZM137.35,205a5.89,5.89,0,0,0,5.33,0c1.46-.85,1.45-2.23,0-3.08a5.87,5.87,0,0,0-5.32,0c-1.47.85-1.46,2.23,0,3.08"/><polygon class="cls-22" points="173.41 180.24 175.24 184.14 177.07 188.05 170.32 187 163.57 185.96 168.49 183.1 173.41 180.24"/><path class="cls-23" d="M196.42,165.81c-1-.58-.56-1.44,1.38-2.56a8.36,8.36,0,0,1,2.56-1,2.62,2.62,0,0,1,1.85.16,1.35,1.35,0,0,1,.49.45,2.45,2.45,0,0,1,.23.5l1.78-.43a2.17,2.17,0,0,0-.47-.78,3.3,3.3,0,0,0-.75-.58,5.33,5.33,0,0,0-3.32-.6,10.09,10.09,0,0,0-4,1.39,5,5,0,0,0-2.39,2.27q-.36,1.09,1.05,1.92a5.22,5.22,0,0,0,2,.67l1.38-.8A5.28,5.28,0,0,1,196.42,165.81Z"/><path class="cls-23" d="M204.87,168a1.78,1.78,0,0,0,0-1.32,1.73,1.73,0,0,1-.14-.91.93.93,0,0,1,.49-.57,2.09,2.09,0,0,1,.88-.27,1.38,1.38,0,0,1,.83.19,1.5,1.5,0,0,1,.53.45,3.6,3.6,0,0,1,.29.5l1.76-.43a3,3,0,0,0-1.32-1.38,4.27,4.27,0,0,0-2.24-.57,4.66,4.66,0,0,0-2.3.64,3.23,3.23,0,0,0-.84.66,1.79,1.79,0,0,0-.33.7,2.09,2.09,0,0,0,.11.88,1.85,1.85,0,0,1,.12,1,.88.88,0,0,1-.49.6,1.75,1.75,0,0,1-1.82,0,2.49,2.49,0,0,1-1.11-1.35l-1.54.89a3.49,3.49,0,0,0,1.44,1.33,4.53,4.53,0,0,0,2.34.63,4.92,4.92,0,0,0,2.38-.7A2.44,2.44,0,0,0,204.87,168Z"/><path class="cls-23" d="M213,167a4.27,4.27,0,0,0-2.24-.57,4.72,4.72,0,0,0-2.3.64,3.16,3.16,0,0,0-.83.66,1.47,1.47,0,0,0-.33.69,1.85,1.85,0,0,0,.11.89,2,2,0,0,1,.12,1,.91.91,0,0,1-.49.6,1.91,1.91,0,0,1-.9.26,1.73,1.73,0,0,1-.92-.25,2.51,2.51,0,0,1-1.12-1.35l-1.53.89a3.39,3.39,0,0,0,1.43,1.33,4.42,4.42,0,0,0,2.34.62,4.8,4.8,0,0,0,2.39-.69,2.36,2.36,0,0,0,1-.95,1.66,1.66,0,0,0,0-1.31,1.71,1.71,0,0,1-.13-.91.9.9,0,0,1,.49-.57,1.88,1.88,0,0,1,.88-.27,1.4,1.4,0,0,1,.83.19,1.56,1.56,0,0,1,.52.45,3.14,3.14,0,0,1,.29.49l1.76-.42A3,3,0,0,0,213,167Z"/><path class="cls-24" d="M202.73,104.23,184.46,93.69a1.72,1.72,0,0,0-1.82.07h0l-4,2.32,1.86,2.53.69.79v18.1a3,3,0,0,0,1.51,2.61l13.67,7.9.14.76,2.79,3.91,4.29-2.52h0l0,0h0a1.39,1.39,0,0,0,.66-1.18v-22A3.12,3.12,0,0,0,202.73,104.23Z"/><path class="cls-25" d="M198.46,106.74,180,96.08a1.35,1.35,0,0,0-2,1.17v22.12a3,3,0,0,0,1.51,2.61l18.48,10.68a1.38,1.38,0,0,0,2.08-1.2v-22A3.12,3.12,0,0,0,198.46,106.74Z"/><path class="cls-6" d="M199.32,132.67h0Z"/><path class="cls-26" d="M200,131.46v-22a3,3,0,0,0-.22-1.07l4.29-2.46a2.89,2.89,0,0,1,.2,1v22a1.39,1.39,0,0,1-.66,1.18h0l0,0h0l-4.25,2.5A1.38,1.38,0,0,0,200,131.46Z"/><path class="cls-27" d="M223.63,60.23,205.36,49.69a1.73,1.73,0,0,0-1.83.08h0l-4,2.31,1.87,2.53.69.8V73.5a3,3,0,0,0,1.51,2.61L217.26,84l.14.76,2.79,3.9,4.29-2.52h0l0,0h0a1.38,1.38,0,0,0,.65-1.18v-22A3.13,3.13,0,0,0,223.63,60.23Z"/><path class="cls-28" d="M219.36,62.74,200.88,52.08a1.35,1.35,0,0,0-2,1.17V75.37A3,3,0,0,0,200.36,78l18.47,10.69a1.39,1.39,0,0,0,2.08-1.21v-22A3.13,3.13,0,0,0,219.36,62.74Z"/><path class="cls-6" d="M220.22,88.67h0Z"/><path class="cls-29" d="M220.91,87.46v-22a2.9,2.9,0,0,0-.21-1.06L225,61.91a3.13,3.13,0,0,1,.19,1V85a1.38,1.38,0,0,1-.65,1.18h0l0,0h0l-4.25,2.5A1.36,1.36,0,0,0,220.91,87.46Z"/><path class="cls-30" d="M162.56,60.55,144.29,50a1.71,1.71,0,0,0-1.83.08h0l-4,2.31,1.87,2.53.69.8V73.82a3,3,0,0,0,1.51,2.61l13.67,7.9.14.76L159.12,89l4.29-2.52h0l0,0h0a1.38,1.38,0,0,0,.65-1.18v-22A3.13,3.13,0,0,0,162.56,60.55Z"/><path class="cls-31" d="M158.29,63.06,139.81,52.4a1.35,1.35,0,0,0-2,1.17V75.69a3,3,0,0,0,1.51,2.61L157.76,89a1.38,1.38,0,0,0,2.08-1.2v-22A3.12,3.12,0,0,0,158.29,63.06Z"/><path class="cls-6" d="M159.14,89h0S159.14,89,159.14,89Z"/><path class="cls-32" d="M159.84,87.78v-22a2.9,2.9,0,0,0-.21-1.06l4.29-2.47a3.13,3.13,0,0,1,.19,1v22a1.38,1.38,0,0,1-.65,1.18h0l0,0h0L159.15,89A1.35,1.35,0,0,0,159.84,87.78Z"/><path class="cls-33" d="M122.56,17.89,104.3,7.35a1.73,1.73,0,0,0-1.83.08h0l-4,2.31,1.86,2.53.7.8V31.16a3,3,0,0,0,1.51,2.61l13.66,7.91.14.76,2.79,3.9,4.29-2.52h0l0,0h0a1.36,1.36,0,0,0,.66-1.17v-22A3.14,3.14,0,0,0,122.56,17.89Z"/><path class="cls-34" d="M118.29,20.4,99.81,9.74a1.35,1.35,0,0,0-2,1.17V33a3,3,0,0,0,1.51,2.61l18.48,10.69a1.39,1.39,0,0,0,2.08-1.2v-22A3.12,3.12,0,0,0,118.29,20.4Z"/><path class="cls-6" d="M119.15,46.33h0Z"/><path class="cls-35" d="M119.85,45.13v-22a3.12,3.12,0,0,0-.21-1.06l4.28-2.47a2.89,2.89,0,0,1,.2,1v22a1.36,1.36,0,0,1-.66,1.17h0l0,0h0l-4.25,2.5A1.36,1.36,0,0,0,119.85,45.13Z"/><path class="cls-2" d="M154.64,67.4a11.72,11.72,0,0,0-4.06-4.29,4.12,4.12,0,0,0-4.08-.41c-2,1.15-2.23,4.58-.68,8l-5,2.86,1.46,2.53,5-2.86a11,11,0,0,0,3.27,3.06,4.1,4.1,0,0,0,4.06.41C156.87,75.47,156.88,71.28,154.64,67.4Zm-1.49,6.82a2.6,2.6,0,0,1-2.6-.27,7.42,7.42,0,0,1-2.6-2.74c-1.43-2.48-1.43-5.16,0-6a2.62,2.62,0,0,1,2.6.26,7.5,7.5,0,0,1,2.6,2.74C154.6,70.72,154.59,73.4,153.15,74.22Z"/><path class="cls-28" d="M103.61,22.3a4.28,4.28,0,0,1,.83.66c.28.27.56.57.84.88l.52-1.18a8.88,8.88,0,0,0-2.19-1.87,3.22,3.22,0,0,0-1.87-.55,1.53,1.53,0,0,0-1.22.85,4.26,4.26,0,0,0-.44,2.1,8,8,0,0,0,.86,3.78,6.33,6.33,0,0,0,2.5,2.58,5.3,5.3,0,0,0,2.06.75V28.76a5.8,5.8,0,0,1-1.91-.64c-1.25-.73-1.88-2.05-1.87-4a2.64,2.64,0,0,1,.49-1.87C102.54,22,103,22,103.61,22.3Z"/><polygon class="cls-28" points="109.72 25.86 108.6 25.21 108.59 27.51 106.61 26.36 106.61 27.65 108.59 28.8 108.58 31.07 109.7 31.71 109.71 29.45 111.69 30.59 111.7 29.3 109.71 28.15 109.72 25.86"/><polygon class="cls-28" points="115.7 31.61 115.71 29.32 114.59 28.67 114.58 30.96 112.6 29.82 112.6 31.11 114.58 32.26 114.57 34.52 115.69 35.17 115.7 32.9 117.68 34.05 117.68 32.76 115.7 31.61"/><path class="cls-2" d="M204.9,61.34a1.79,1.79,0,0,0-.3,1.21v2.71q0,.75-.48.81a2.5,2.5,0,0,1-1.37-.46v1.84a4.68,4.68,0,0,1,1.37,1.13,2.26,2.26,0,0,1,.48,1.43v2.62a3.65,3.65,0,0,0,.3,1.56,3.84,3.84,0,0,0,.94,1.26,9.15,9.15,0,0,0,1.79,1.26V75a3,3,0,0,1-1-.89,2,2,0,0,1-.26-1v-2.6a3.43,3.43,0,0,0-1.65-2.73v-.1c1.09.44,1.64.14,1.66-.92v-2.5c0-.41.09-.65.27-.74s.51,0,1,.27V62a6.79,6.79,0,0,0-1.78-.8A.94.94,0,0,0,204.9,61.34Z"/><path class="cls-2" d="M215.23,72.49a2.16,2.16,0,0,1-.47-1.36V68.42a3.53,3.53,0,0,0-.68-2.19,7.58,7.58,0,0,0-2.35-1.89v1.74a3,3,0,0,1,1,.89,2,2,0,0,1,.26,1v2.5a3.6,3.6,0,0,0,1.67,2.84v.1a1.61,1.61,0,0,0-1.24-.12c-.29.14-.44.46-.44,1v2.57c0,.41-.08.66-.26.75s-.51,0-1-.27v1.74a4.39,4.39,0,0,0,2.37.84c.45-.09.68-.56.68-1.42V75.89c0-.55.16-.84.47-.89a2.45,2.45,0,0,1,1.38.45V73.61A4.68,4.68,0,0,1,215.23,72.49Z"/><polygon class="cls-16" points="180.3 110.33 186.02 116.55 186.03 114.96 182.08 110.81 186.04 110.99 186.04 109.4 180.3 109.38 180.3 110.33"/><polygon class="cls-16" points="186.61 118.24 188.21 119.16 191.39 111.27 189.78 110.35 186.61 118.24"/><polygon class="cls-16" points="191.94 112.81 191.94 114.4 195.89 118.78 191.93 118.37 191.92 119.96 197.67 120.36 197.67 119.41 191.94 112.81"/><polygon class="cls-34" points="73.83 81.28 73.83 82.35 78.33 84.94 78.33 83.87 73.83 81.28"/><polygon class="cls-36" points="73.83 83.23 73.83 84.3 78.33 86.9 78.33 85.83 73.83 83.23"/><polygon class="cls-36" points="73.83 85.19 73.83 86.26 78.33 88.85 78.33 87.78 73.83 85.19"/><polygon class="cls-36" points="107.77 107.79 107.77 106.72 80.01 90.71 80.01 91.78 107.77 107.79"/><polygon class="cls-36" points="73.83 87.14 73.83 88.21 78.33 90.81 78.33 89.74 73.83 87.14"/><polygon class="cls-36" points="73.83 89.1 73.83 90.17 78.33 92.76 78.33 91.69 73.83 89.1"/><polygon class="cls-25" points="107.77 109.74 107.77 108.67 80.01 92.67 80.01 93.73 107.77 109.74"/><polygon class="cls-36" points="73.83 94.96 73.83 96.03 78.33 98.63 78.33 97.56 73.83 94.96"/><polygon class="cls-34" points="73.83 96.92 73.83 97.99 78.33 100.58 78.33 99.51 73.83 96.92"/><polygon class="cls-36" points="73.83 104.74 73.83 105.81 78.33 108.41 78.33 107.33 73.83 104.74"/><polygon class="cls-36" points="73.83 106.7 73.83 107.77 78.33 110.36 78.33 109.29 73.83 106.7"/><polygon class="cls-25" points="97.52 120.36 80.01 110.26 80.01 111.33 97.52 121.43 97.52 120.36"/><polygon class="cls-36" points="98.44 120.89 98.44 121.97 107.77 127.34 107.77 126.27 98.44 120.89"/><polygon class="cls-36" points="88.81 113.38 80.01 108.31 80.01 109.38 88.81 114.45 88.81 113.38"/><polygon class="cls-36" points="89.73 113.92 89.73 114.98 107.77 125.39 107.77 124.32 89.73 113.92"/><polygon class="cls-36" points="105.39 117.08 105.39 118.15 107.77 119.52 107.77 118.45 105.39 117.08"/><polygon class="cls-5" points="92.48 107.68 80.01 100.49 80.01 101.56 92.48 108.75 92.48 107.68"/><polygon class="cls-36" points="87.37 89.09 80.01 84.84 80.01 85.91 87.37 90.16 87.37 89.09"/><polygon class="cls-36" points="99.44 96.05 88.3 89.62 88.3 90.69 99.44 97.12 99.44 96.05"/><polygon class="cls-36" points="92.94 94.26 85.1 89.73 85.1 90.8 92.94 95.33 92.94 94.26"/><polygon class="cls-5" points="101.18 99 93.87 94.79 93.87 95.86 101.18 100.08 101.18 99"/><polygon class="cls-36" points="102.1 99.54 102.1 100.61 107.77 103.88 107.77 102.81 102.1 99.54"/><polygon class="cls-5" points="81.46 89.59 81.46 90.66 87.37 94.07 87.37 93 81.46 89.59"/><polygon class="cls-36" points="105.45 103.43 88.3 93.53 88.3 94.6 105.45 104.5 105.45 103.43"/><polygon class="cls-36" points="95.63 103.63 84.42 97.16 84.42 98.23 95.63 104.7 95.63 103.63"/><polygon class="cls-36" points="105.45 109.29 96.55 104.16 96.55 105.23 105.45 110.36 105.45 109.29"/><polygon class="cls-36" points="104.47 114.59 93.41 108.21 93.41 109.28 104.47 115.66 104.47 114.59"/><polygon class="cls-25" points="98.44 113.07 98.44 114.14 104.47 117.62 104.47 116.55 98.44 113.07"/><polygon class="cls-36" points="82.18 103.69 80.01 102.44 80.01 103.51 82.18 104.76 82.18 103.69"/><polygon class="cls-36" points="86.25 106.04 86.25 107.11 97.52 113.61 97.52 112.54 86.25 106.04"/><polygon class="cls-36" points="85.33 105.51 83.11 104.23 83.11 105.3 85.33 106.58 85.33 105.51"/><polygon class="cls-36" points="95.44 113.29 83.11 106.18 83.11 107.25 95.44 114.36 95.44 113.29"/><polygon class="cls-36" points="109.72 101.99 109.72 102.28 110.96 103 110.96 102.7 109.72 101.99"/><polygon class="cls-36" points="109.72 102.53 109.72 102.82 110.96 103.54 110.96 103.24 109.72 102.53"/><polygon class="cls-36" points="109.72 103.07 109.72 103.36 110.96 104.08 110.96 103.78 109.72 103.07"/><polygon class="cls-36" points="119.07 109.29 119.07 109 111.42 104.59 111.42 104.88 119.07 109.29"/><polygon class="cls-36" points="109.72 103.61 109.72 103.9 110.96 104.61 110.96 104.32 109.72 103.61"/><polygon class="cls-36" points="109.72 104.14 109.72 104.44 110.96 105.15 110.96 104.86 109.72 104.14"/><polygon class="cls-36" points="119.07 109.83 119.07 109.54 111.42 105.13 111.42 105.42 119.07 109.83"/><polygon class="cls-36" points="109.72 105.76 109.72 106.06 110.96 106.77 110.96 106.48 109.72 105.76"/><polygon class="cls-36" points="109.72 106.3 109.72 106.59 110.96 107.31 110.96 107.01 109.72 106.3"/><polygon class="cls-36" points="109.72 108.45 109.72 108.75 110.96 109.47 110.96 109.17 109.72 108.45"/><polygon class="cls-36" points="109.72 108.99 109.72 109.29 110.96 110 110.96 109.71 109.72 108.99"/><polygon class="cls-36" points="116.25 112.76 111.42 109.98 111.42 110.27 116.25 113.05 116.25 112.76"/><polygon class="cls-36" points="116.5 112.91 116.5 113.2 119.07 114.68 119.07 114.39 116.5 112.91"/><polygon class="cls-36" points="113.85 110.84 111.42 109.44 111.42 109.73 113.85 111.13 113.85 110.84"/><polygon class="cls-36" points="114.1 110.98 114.1 111.28 119.07 114.14 119.07 113.85 114.1 110.98"/><polygon class="cls-36" points="118.42 111.86 118.42 112.15 119.07 112.53 119.07 112.23 118.42 111.86"/><polygon class="cls-36" points="114.86 109.27 111.42 107.28 111.42 107.58 114.86 109.56 114.86 109.27"/><polygon class="cls-36" points="113.45 104.14 111.42 102.97 111.42 103.27 113.45 104.44 113.45 104.14"/><polygon class="cls-36" points="116.78 106.06 113.7 104.29 113.7 104.58 116.78 106.35 116.78 106.06"/><polygon class="cls-36" points="114.98 105.57 112.82 104.32 112.82 104.61 114.98 105.86 114.98 105.57"/><polygon class="cls-36" points="117.25 106.87 115.24 105.71 115.24 106.01 117.25 107.17 117.25 106.87"/><polygon class="cls-36" points="117.51 107.02 117.51 107.32 119.07 108.22 119.07 107.92 117.51 107.02"/><polygon class="cls-36" points="111.82 104.28 111.82 104.58 113.45 105.52 113.45 105.22 111.82 104.28"/><polygon class="cls-36" points="118.43 108.09 113.7 105.37 113.7 105.66 118.43 108.39 118.43 108.09"/><polygon class="cls-36" points="115.72 108.15 112.64 106.37 112.64 106.66 115.72 108.44 115.72 108.15"/><polygon class="cls-36" points="118.43 109.71 115.98 108.3 115.98 108.59 118.43 110 118.43 109.71"/><polygon class="cls-36" points="118.16 111.17 115.11 109.41 115.11 109.71 118.16 111.47 118.16 111.17"/><polygon class="cls-36" points="116.5 110.75 116.5 111.05 118.16 112 118.16 111.71 116.5 110.75"/><polygon class="cls-36" points="112.02 108.17 111.42 107.82 111.42 108.12 112.02 108.46 112.02 108.17"/><polygon class="cls-36" points="113.14 108.81 113.14 109.11 116.25 110.9 116.25 110.6 113.14 108.81"/><polygon class="cls-36" points="112.89 108.67 112.27 108.31 112.27 108.61 112.89 108.96 112.89 108.67"/><polygon class="cls-36" points="115.67 110.81 112.27 108.85 112.27 109.15 115.67 111.11 115.67 110.81"/><polygon class="cls-36" points="109.72 111.11 109.72 111.4 110.96 112.12 110.96 111.82 109.72 111.11"/><polygon class="cls-36" points="109.72 111.64 109.72 111.94 110.96 112.66 110.96 112.36 109.72 111.64"/><polygon class="cls-36" points="109.72 112.18 109.72 112.48 110.96 113.19 110.96 112.9 109.72 112.18"/><polygon class="cls-36" points="119.07 118.41 119.07 118.12 111.42 113.71 111.42 114 119.07 118.41"/><polygon class="cls-36" points="109.72 112.72 109.72 113.02 110.96 113.73 110.96 113.44 109.72 112.72"/><polygon class="cls-36" points="109.72 113.26 109.72 113.56 110.96 114.27 110.96 113.98 109.72 113.26"/><polygon class="cls-36" points="119.07 118.95 119.07 118.66 111.42 114.24 111.42 114.54 119.07 118.95"/><polygon class="cls-36" points="109.72 114.88 109.72 115.17 110.96 115.89 110.96 115.59 109.72 114.88"/><polygon class="cls-36" points="109.72 115.42 109.72 115.71 110.96 116.43 110.96 116.13 109.72 115.42"/><polygon class="cls-36" points="109.72 117.57 109.72 117.87 110.96 118.58 110.96 118.29 109.72 117.57"/><polygon class="cls-36" points="109.72 118.11 109.72 118.41 110.96 119.12 110.96 118.83 109.72 118.11"/><polygon class="cls-36" points="116.25 121.88 111.42 119.09 111.42 119.39 116.25 122.17 116.25 121.88"/><polygon class="cls-36" points="116.5 122.02 116.5 122.32 119.07 123.8 119.07 123.5 116.5 122.02"/><polygon class="cls-36" points="113.85 119.95 111.42 118.56 111.42 118.85 113.85 120.25 113.85 119.95"/><polygon class="cls-36" points="114.1 120.1 114.1 120.39 119.07 123.26 119.07 122.97 114.1 120.1"/><polygon class="cls-36" points="118.42 120.97 118.42 121.27 119.07 121.64 119.07 121.35 118.42 120.97"/><polygon class="cls-36" points="114.86 118.38 111.42 116.4 111.42 116.69 114.86 118.68 114.86 118.38"/><polygon class="cls-36" points="113.45 113.26 111.42 112.09 111.42 112.38 113.45 113.55 113.45 113.26"/><polygon class="cls-36" points="116.78 115.18 113.7 113.41 113.7 113.7 116.78 115.47 116.78 115.18"/><polygon class="cls-36" points="114.98 114.68 112.82 113.44 112.82 113.73 114.98 114.98 114.98 114.68"/><polygon class="cls-36" points="117.25 115.99 115.24 114.83 115.24 115.13 117.25 116.29 117.25 115.99"/><polygon class="cls-36" points="117.51 116.14 117.51 116.43 119.07 117.33 119.07 117.04 117.51 116.14"/><polygon class="cls-36" points="111.82 113.4 111.82 113.69 113.45 114.63 113.45 114.34 111.82 113.4"/><polygon class="cls-36" points="118.43 117.21 113.7 114.48 113.7 114.78 118.43 117.5 118.43 117.21"/><polygon class="cls-36" points="115.72 117.27 112.64 115.48 112.64 115.78 115.72 117.56 115.72 117.27"/><polygon class="cls-36" points="118.43 118.83 115.98 117.41 115.98 117.71 118.43 119.12 118.43 118.83"/><polygon class="cls-36" points="118.16 120.29 115.11 118.53 115.11 118.82 118.16 120.58 118.16 120.29"/><polygon class="cls-36" points="116.5 119.87 116.5 120.16 118.16 121.12 118.16 120.83 116.5 119.87"/><polygon class="cls-36" points="112.02 117.28 111.42 116.94 111.42 117.23 112.02 117.58 112.02 117.28"/><polygon class="cls-36" points="113.14 117.93 113.14 118.22 116.25 120.02 116.25 119.72 113.14 117.93"/><polygon class="cls-36" points="112.89 117.78 112.27 117.43 112.27 117.72 112.89 118.08 112.89 117.78"/><polygon class="cls-36" points="115.67 119.93 112.27 117.97 112.27 118.26 115.67 120.22 115.67 119.93"/><polygon class="cls-36" points="109.72 120.22 109.72 120.52 110.96 121.23 110.96 120.94 109.72 120.22"/><polygon class="cls-36" points="109.72 120.76 109.72 121.06 110.96 121.77 110.96 121.48 109.72 120.76"/><polygon class="cls-36" points="109.72 121.3 109.72 121.6 110.96 122.31 110.96 122.02 109.72 121.3"/><polygon class="cls-36" points="119.07 127.53 119.07 127.23 111.42 122.82 111.42 123.12 119.07 127.53"/><polygon class="cls-36" points="109.72 121.84 109.72 122.14 110.96 122.85 110.96 122.56 109.72 121.84"/><polygon class="cls-36" points="109.72 122.38 109.72 122.67 110.96 123.39 110.96 123.09 109.72 122.38"/><polygon class="cls-36" points="119.07 128.07 119.07 127.77 111.42 123.36 111.42 123.66 119.07 128.07"/><polygon class="cls-36" points="109.72 124 109.72 124.29 110.96 125 110.96 124.71 109.72 124"/><polygon class="cls-36" points="109.72 124.53 109.72 124.83 110.96 125.54 110.96 125.25 109.72 124.53"/><polygon class="cls-36" points="109.72 126.69 109.72 126.98 110.96 127.7 110.96 127.4 109.72 126.69"/><polygon class="cls-36" points="109.72 127.23 109.72 127.52 110.96 128.24 110.96 127.94 109.72 127.23"/><polygon class="cls-36" points="116.25 130.99 111.42 128.21 111.42 128.51 116.25 131.29 116.25 130.99"/><polygon class="cls-36" points="116.5 131.14 116.5 131.44 119.07 132.92 119.07 132.62 116.5 131.14"/><polygon class="cls-36" points="113.85 129.07 111.42 127.67 111.42 127.97 113.85 129.37 113.85 129.07"/><polygon class="cls-36" points="114.1 129.22 114.1 129.51 119.07 132.38 119.07 132.08 114.1 129.22"/><polygon class="cls-36" points="118.42 130.09 118.42 130.38 119.07 130.76 119.07 130.47 118.42 130.09"/><polygon class="cls-36" points="114.86 127.5 111.42 125.52 111.42 125.81 114.86 127.79 114.86 127.5"/><polygon class="cls-36" points="113.45 122.38 111.42 121.21 111.42 121.5 113.45 122.67 113.45 122.38"/><polygon class="cls-36" points="116.78 124.29 113.7 122.52 113.7 122.82 116.78 124.59 116.78 124.29"/><polygon class="cls-36" points="114.98 123.8 112.82 122.55 112.82 122.85 114.98 124.09 114.98 123.8"/><polygon class="cls-36" points="117.25 125.11 115.24 123.95 115.24 124.24 117.25 125.4 117.25 125.11"/><polygon class="cls-36" points="117.51 125.25 117.51 125.55 119.07 126.45 119.07 126.16 117.51 125.25"/><polygon class="cls-36" points="111.82 122.51 111.82 122.81 113.45 123.75 113.45 123.45 111.82 122.51"/><polygon class="cls-36" points="118.43 126.33 113.7 123.6 113.7 123.89 118.43 126.62 118.43 126.33"/><polygon class="cls-36" points="115.72 126.38 112.64 124.6 112.64 124.89 115.72 126.68 115.72 126.38"/><polygon class="cls-36" points="118.43 127.94 115.98 126.53 115.98 126.82 118.43 128.24 118.43 127.94"/><polygon class="cls-36" points="118.16 129.4 115.11 127.64 115.11 127.94 118.16 129.7 118.16 129.4"/><polygon class="cls-36" points="116.5 128.99 116.5 129.28 118.16 130.24 118.16 129.94 116.5 128.99"/><polygon class="cls-36" points="112.02 126.4 111.42 126.06 111.42 126.35 112.02 126.69 112.02 126.4"/><polygon class="cls-36" points="113.14 127.05 113.14 127.34 116.25 129.13 116.25 128.84 113.14 127.05"/><polygon class="cls-36" points="112.89 126.9 112.27 126.55 112.27 126.84 112.89 127.19 112.89 126.9"/><polygon class="cls-36" points="115.67 129.05 112.27 127.09 112.27 127.38 115.67 129.34 115.67 129.05"/><polygon class="cls-36" points="109.72 129.34 109.72 129.64 110.96 130.35 110.96 130.06 109.72 129.34"/><polygon class="cls-36" points="109.72 129.88 109.72 130.17 110.96 130.89 110.96 130.59 109.72 129.88"/><polygon class="cls-36" points="109.72 130.42 109.72 130.71 110.96 131.43 110.96 131.13 109.72 130.42"/><polygon class="cls-36" points="119.07 136.65 119.07 136.35 111.42 131.94 111.42 132.24 119.07 136.65"/><polygon class="cls-36" points="109.72 130.96 109.72 131.25 110.96 131.97 110.96 131.67 109.72 130.96"/><polygon class="cls-36" points="109.72 131.5 109.72 131.79 110.96 132.5 110.96 132.21 109.72 131.5"/><polygon class="cls-36" points="119.07 137.18 119.07 136.89 111.42 132.48 111.42 132.77 119.07 137.18"/><polygon class="cls-36" points="109.72 133.11 109.72 133.41 110.96 134.12 110.96 133.83 109.72 133.11"/><polygon class="cls-36" points="109.72 133.65 109.72 133.95 110.96 134.66 110.96 134.37 109.72 133.65"/><polygon class="cls-36" points="118.42 139.21 118.42 139.5 119.07 139.88 119.07 139.58 118.42 139.21"/><polygon class="cls-36" points="114.86 136.62 111.42 134.63 111.42 134.93 114.86 136.91 114.86 136.62"/><polygon class="cls-36" points="113.45 131.49 111.42 130.32 111.42 130.62 113.45 131.79 113.45 131.49"/><polygon class="cls-36" points="116.78 133.41 113.7 131.64 113.7 131.94 116.78 133.71 116.78 133.41"/><polygon class="cls-36" points="114.98 132.92 112.82 131.67 112.82 131.97 114.98 133.21 114.98 132.92"/><polygon class="cls-36" points="117.25 134.23 115.24 133.06 115.24 133.36 117.25 134.52 117.25 134.23"/><polygon class="cls-36" points="117.51 134.37 117.51 134.67 119.07 135.57 119.07 135.27 117.51 134.37"/><polygon class="cls-36" points="111.82 131.63 111.82 131.93 113.45 132.87 113.45 132.57 111.82 131.63"/><polygon class="cls-36" points="118.43 135.44 113.7 132.72 113.7 133.01 118.43 135.74 118.43 135.44"/><polygon class="cls-36" points="115.72 135.5 112.64 133.72 112.64 134.01 115.72 135.79 115.72 135.5"/><polygon class="cls-36" points="118.43 137.06 115.98 135.65 115.98 135.94 118.43 137.36 118.43 137.06"/><polygon class="cls-36" points="118.16 138.52 115.11 136.76 115.11 137.06 118.16 138.82 118.16 138.52"/><polygon class="cls-36" points="116.5 138.1 116.5 138.4 118.16 139.35 118.16 139.06 116.5 138.1"/><polygon class="cls-36" points="112.02 135.52 111.42 135.17 111.42 135.47 112.02 135.81 112.02 135.52"/><polygon class="cls-36" points="113.14 136.16 113.14 136.46 116.25 138.25 116.25 137.96 113.14 136.16"/><polygon class="cls-36" points="112.89 136.02 112.27 135.66 112.27 135.96 112.89 136.31 112.89 136.02"/><polygon class="cls-36" points="115.67 138.16 112.27 136.2 112.27 136.5 115.67 138.46 115.67 138.16"/><path class="cls-25" d="M71,79.61l-1.48-.85a.11.11,0,0,0-.17.09v1.78a.26.26,0,0,0,.13.21l1.48.85a.11.11,0,0,0,.16-.09V79.83A.25.25,0,0,0,71,79.61Z"/><path class="cls-25" d="M71,82.27l-1.48-.86a.12.12,0,0,0-.17.1v1.77a.23.23,0,0,0,.13.21l1.48.86a.11.11,0,0,0,.16-.1V82.48A.22.22,0,0,0,71,82.27Z"/><path class="cls-25" d="M71,84.92l-1.48-.86a.12.12,0,0,0-.17.1v1.77a.23.23,0,0,0,.13.21l1.48.86a.11.11,0,0,0,.16-.1V85.14A.24.24,0,0,0,71,84.92Z"/><path class="cls-25" d="M71,87.57l-1.48-.85a.11.11,0,0,0-.17.09v1.78a.23.23,0,0,0,.13.2l1.48.86a.11.11,0,0,0,.16-.09V87.79A.25.25,0,0,0,71,87.57Z"/><path class="cls-25" d="M71,90.23l-1.48-.86a.12.12,0,0,0-.17.1v1.77a.26.26,0,0,0,.13.21l1.48.85a.1.1,0,0,0,.16-.09V90.44A.22.22,0,0,0,71,90.23Z"/><path class="cls-25" d="M71,92.88,69.47,92a.12.12,0,0,0-.17.1v1.77a.23.23,0,0,0,.13.21l1.48.86a.11.11,0,0,0,.16-.1V93.1A.24.24,0,0,0,71,92.88Z"/><path class="cls-25" d="M71,95.53l-1.48-.85a.11.11,0,0,0-.17.09v1.77a.23.23,0,0,0,.13.21l1.48.86a.11.11,0,0,0,.16-.1V95.75A.25.25,0,0,0,71,95.53Z"/><path class="cls-25" d="M71,98.19l-1.48-.86a.11.11,0,0,0-.17.09V99.2a.26.26,0,0,0,.13.21l1.48.85a.1.1,0,0,0,.16-.09V98.4A.22.22,0,0,0,71,98.19Z"/><path class="cls-25" d="M71,100.84,69.47,100a.12.12,0,0,0-.17.1v1.77a.23.23,0,0,0,.13.21l1.48.86a.11.11,0,0,0,.16-.1v-1.77A.24.24,0,0,0,71,100.84Z"/><path class="cls-25" d="M71,103.49l-1.48-.85a.11.11,0,0,0-.17.09v1.77a.23.23,0,0,0,.13.21l1.48.86a.11.11,0,0,0,.16-.1v-1.76A.25.25,0,0,0,71,103.49Z"/><path class="cls-25" d="M71,106.14l-1.48-.85a.11.11,0,0,0-.17.09v1.78a.26.26,0,0,0,.13.21l1.48.85a.1.1,0,0,0,.16-.09v-1.77A.25.25,0,0,0,71,106.14Z"/><path class="cls-25" d="M71,108.8l-1.48-.86a.12.12,0,0,0-.17.1v1.77a.23.23,0,0,0,.13.21l1.48.86a.11.11,0,0,0,.16-.1V109A.24.24,0,0,0,71,108.8Z"/><g class="cls-1"><polygon class="cls-2" points="140.54 89.02 140.54 90.09 145.04 92.68 145.04 91.61 140.54 89.02"/><polygon class="cls-2" points="140.54 90.97 140.54 92.04 145.04 94.64 145.04 93.56 140.54 90.97"/><polygon class="cls-2" points="140.54 92.93 140.54 94 145.04 96.59 145.04 95.52 140.54 92.93"/><polygon class="cls-2" points="174.48 115.53 174.48 114.46 146.73 98.45 146.73 99.52 174.48 115.53"/><polygon class="cls-2" points="140.54 94.88 140.54 95.95 145.04 98.55 145.04 97.48 140.54 94.88"/><polygon class="cls-2" points="140.54 96.84 140.54 97.91 145.04 100.5 145.04 99.43 140.54 96.84"/><polygon class="cls-2" points="174.48 117.48 174.48 116.41 146.73 100.41 146.73 101.47 174.48 117.48"/><polygon class="cls-2" points="140.54 102.7 140.54 103.78 145.04 106.37 145.04 105.3 140.54 102.7"/><polygon class="cls-2" points="140.54 104.66 140.54 105.73 145.04 108.32 145.04 107.25 140.54 104.66"/><polygon class="cls-2" points="140.54 112.48 140.54 113.55 145.04 116.15 145.04 115.08 140.54 112.48"/><polygon class="cls-2" points="140.54 114.44 140.54 115.51 145.04 118.1 145.04 117.03 140.54 114.44"/><polygon class="cls-2" points="164.24 128.1 146.73 118 146.73 119.08 164.24 129.17 164.24 128.1"/><polygon class="cls-2" points="165.16 128.63 165.16 129.71 174.48 135.08 174.48 134.01 165.16 128.63"/><polygon class="cls-2" points="155.53 121.12 146.73 116.05 146.73 117.12 155.53 122.19 155.53 121.12"/><polygon class="cls-2" points="156.45 121.66 156.45 122.72 174.48 133.13 174.48 132.06 156.45 121.66"/><polygon class="cls-2" points="172.11 124.82 172.11 125.89 174.48 127.26 174.48 126.19 172.11 124.82"/><polygon class="cls-2" points="159.2 115.42 146.73 108.23 146.73 109.3 159.2 116.49 159.2 115.42"/><polygon class="cls-2" points="154.09 96.83 146.73 92.58 146.73 93.65 154.09 97.9 154.09 96.83"/><polygon class="cls-2" points="166.16 103.79 155.01 97.36 155.01 98.43 166.16 104.86 166.16 103.79"/><polygon class="cls-2" points="159.66 102 151.82 97.47 151.82 98.54 159.66 103.07 159.66 102"/><polygon class="cls-2" points="167.89 106.75 160.58 102.53 160.58 103.6 167.89 107.81 167.89 106.75"/><polygon class="cls-2" points="168.81 107.28 168.81 108.35 174.48 111.62 174.48 110.55 168.81 107.28"/><polygon class="cls-2" points="148.18 97.33 148.18 98.4 154.09 101.81 154.09 100.74 148.18 97.33"/><polygon class="cls-2" points="172.17 111.17 155.01 101.27 155.01 102.34 172.17 112.24 172.17 111.17"/><polygon class="cls-2" points="162.35 111.37 151.13 104.9 151.13 105.97 162.35 112.44 162.35 111.37"/><polygon class="cls-2" points="172.17 117.03 163.27 111.9 163.27 112.97 172.17 118.11 172.17 117.03"/><polygon class="cls-2" points="171.19 122.33 160.12 115.95 160.12 117.02 171.19 123.4 171.19 122.33"/><polygon class="cls-2" points="165.16 120.81 165.16 121.88 171.19 125.36 171.19 124.29 165.16 120.81"/><polygon class="cls-2" points="148.9 111.43 146.73 110.18 146.73 111.25 148.9 112.5 148.9 111.43"/><polygon class="cls-2" points="152.96 113.78 152.96 114.85 164.24 121.35 164.24 120.28 152.96 113.78"/><polygon class="cls-2" points="152.04 113.25 149.82 111.97 149.82 113.04 152.04 114.32 152.04 113.25"/><polygon class="cls-2" points="162.15 121.03 149.82 113.92 149.82 114.99 162.15 122.1 162.15 121.03"/></g><g class="cls-1"><polygon class="cls-2" points="181.88 22 181.88 23.07 186.38 25.66 186.38 24.59 181.88 22"/><polygon class="cls-2" points="181.88 23.95 181.88 25.03 186.38 27.62 186.38 26.55 181.88 23.95"/><polygon class="cls-2" points="181.88 25.91 181.88 26.98 186.38 29.57 186.38 28.5 181.88 25.91"/><polygon class="cls-2" points="215.82 48.51 215.82 47.44 188.07 31.43 188.07 32.5 215.82 48.51"/><polygon class="cls-2" points="181.88 27.87 181.88 28.94 186.38 31.53 186.38 30.46 181.88 27.87"/><polygon class="cls-2" points="181.88 29.82 181.88 30.89 186.38 33.49 186.38 32.41 181.88 29.82"/><polygon class="cls-2" points="215.82 50.47 215.82 49.4 188.07 33.39 188.07 34.46 215.82 50.47"/><polygon class="cls-2" points="181.88 35.69 181.88 36.76 186.38 39.35 186.38 38.28 181.88 35.69"/><polygon class="cls-2" points="181.88 37.64 181.88 38.71 186.38 41.31 186.38 40.24 181.88 37.64"/><polygon class="cls-2" points="181.88 45.47 181.88 46.54 186.38 49.13 186.38 48.06 181.88 45.47"/><polygon class="cls-2" points="181.88 47.42 181.88 48.49 186.38 51.09 186.38 50.01 181.88 47.42"/><polygon class="cls-2" points="205.57 61.09 188.07 50.99 188.07 52.06 205.57 62.16 205.57 61.09"/><polygon class="cls-2" points="206.5 61.62 206.5 62.69 215.82 68.07 215.82 67 206.5 61.62"/><polygon class="cls-2" points="196.86 54.11 188.07 49.03 188.07 50.1 196.86 55.18 196.86 54.11"/><polygon class="cls-2" points="197.78 54.64 197.78 55.71 215.82 66.11 215.82 65.04 197.78 54.64"/><polygon class="cls-2" points="213.45 57.8 213.45 58.88 215.82 60.24 215.82 59.17 213.45 57.8"/><polygon class="cls-2" points="200.54 48.4 188.07 41.21 188.07 42.28 200.54 49.47 200.54 48.4"/><polygon class="cls-2" points="195.43 29.81 188.07 25.57 188.07 26.64 195.43 30.88 195.43 29.81"/><polygon class="cls-2" points="207.49 36.77 196.35 30.34 196.35 31.41 207.49 37.84 207.49 36.77"/><polygon class="cls-2" points="201 34.98 193.15 30.46 193.15 31.53 201 36.05 201 34.98"/><polygon class="cls-2" points="209.23 39.73 201.92 35.51 201.92 36.58 209.23 40.8 209.23 39.73"/><polygon class="cls-2" points="210.15 40.26 210.15 41.33 215.82 44.6 215.82 43.53 210.15 40.26"/><polygon class="cls-2" points="189.51 30.31 189.51 31.38 195.43 34.79 195.43 33.72 189.51 30.31"/><polygon class="cls-2" points="213.51 44.15 196.35 34.26 196.35 35.33 213.51 45.22 213.51 44.15"/><polygon class="cls-2" points="203.68 44.35 192.47 37.88 192.47 38.95 203.68 45.42 203.68 44.35"/><polygon class="cls-2" points="213.51 50.02 204.61 44.88 204.61 45.95 213.51 51.09 213.51 50.02"/><polygon class="cls-2" points="212.52 55.32 201.46 48.94 201.46 50.01 212.52 56.39 212.52 55.32"/><polygon class="cls-2" points="206.5 53.8 206.5 54.87 212.52 58.34 212.52 57.27 206.5 53.8"/><polygon class="cls-2" points="190.24 44.42 188.07 43.17 188.07 44.24 190.24 45.49 190.24 44.42"/><polygon class="cls-2" points="194.3 46.76 194.3 47.83 205.57 54.34 205.57 53.27 194.3 46.76"/><polygon class="cls-2" points="193.38 46.23 191.16 44.95 191.16 46.02 193.38 47.3 193.38 46.23"/><polygon class="cls-2" points="203.49 54.02 191.16 46.91 191.16 47.98 203.49 55.09 203.49 54.02"/></g><path class="cls-14" d="M100.59,159.41a6,6,0,0,0-5.51.84c-3,2-5,4.74-3.78,5.76s3.57,2.1,5.1,1.55S105.49,162.57,100.59,159.41Z"/><polygon class="cls-5" points="163.5 147.74 139.94 161.09 124.92 152.4 148.48 139.06 163.5 147.74"/><polygon class="cls-37" points="144.55 160.77 144.55 161.29 168.11 147.8 168.11 147.42 144.55 160.77"/><polygon class="cls-38" points="168.11 147.42 144.55 160.77 129.54 152.08 153.09 138.74 168.11 147.42"/><polygon class="cls-39" points="144.55 160.77 144.55 161.29 129.54 152.6 129.54 152.08 144.55 160.77"/><polygon class="cls-40" points="152.93 140.16 162 145.39 161.61 145.62 152.53 140.39 152.93 140.16"/><polygon class="cls-40" points="151.99 140.7 161.06 145.93 160.66 146.15 151.59 140.92 151.99 140.7"/><polygon class="cls-40" points="149.8 141.94 162.29 149.15 161.89 149.37 149.4 142.16 149.8 141.94"/><polygon class="cls-40" points="148.93 142.43 161.42 149.64 161.03 149.86 148.53 142.65 148.93 142.43"/><polygon class="cls-40" points="148.07 142.92 160.56 150.13 160.16 150.35 147.67 143.14 148.07 142.92"/><polygon class="cls-40" points="147.2 143.41 159.69 150.62 159.3 150.84 146.81 143.63 147.2 143.41"/><polygon class="cls-40" points="146.34 143.9 158.83 151.11 158.43 151.34 145.94 144.13 146.34 143.9"/><polygon class="cls-40" points="145.47 144.39 157.97 151.6 157.57 151.83 145.08 144.62 145.47 144.39"/><polygon class="cls-40" points="144.61 144.88 157.1 152.09 156.7 152.32 144.21 145.11 144.61 144.88"/><polygon class="cls-40" points="143.74 145.37 156.24 152.58 155.84 152.81 143.35 145.6 143.74 145.37"/><polygon class="cls-40" points="142.88 145.86 155.37 153.07 154.97 153.3 142.48 146.09 142.88 145.86"/><polygon class="cls-40" points="142.01 146.35 154.51 153.56 154.11 153.79 141.62 146.58 142.01 146.35"/><polygon class="cls-40" points="141.15 146.84 153.64 154.06 153.24 154.28 140.75 147.07 141.15 146.84"/><polygon class="cls-40" points="140.29 147.34 152.78 154.54 152.38 154.77 139.89 147.56 140.29 147.34"/><polygon class="cls-40" points="139.42 147.83 151.91 155.04 151.51 155.26 139.02 148.05 139.42 147.83"/><polygon class="cls-40" points="138.56 148.32 151.05 155.53 150.65 155.75 138.16 148.54 138.56 148.32"/><polygon class="cls-40" points="137.69 148.81 150.18 156.02 149.79 156.24 137.29 149.03 137.69 148.81"/><path class="cls-11" d="M127.51,155.51h-2.2v2.38h2.2a1.49,1.49,0,0,1,1.49,1.48v3.86a1.49,1.49,0,0,1-1.49,1.49h-3.23v2.38h3.23a3.88,3.88,0,0,0,3.87-3.87v-3.86A3.87,3.87,0,0,0,127.51,155.51Z"/><path class="cls-6" d="M126.69,154.2v13.38c0,2.07-3.1,3.75-6.91,3.75s-6.91-1.68-6.91-3.75V154.2Z"/><path class="cls-2" d="M112.87,154.2c0,2.07,3.09,3.75,6.91,3.75s6.91-1.68,6.91-3.75-3.1-3.76-6.91-3.76S112.87,152.12,112.87,154.2Z"/><path class="cls-11" d="M114.25,154.15c0,1.62,2.47,2.94,5.53,2.94s5.53-1.32,5.53-2.94-2.48-2.94-5.53-2.94S114.25,152.53,114.25,154.15Z"/><path class="cls-10" d="M119.78,153.13c-2.42,0-4.47.83-5.22,2,.75,1.15,2.8,2,5.22,2s4.47-.83,5.22-2C124.25,154,122.2,153.13,119.78,153.13Z"/><path class="cls-11" d="M122.39,157.67v13.39a7.51,7.51,0,0,0,3.25-1.51V156.17A7.39,7.39,0,0,1,122.39,157.67Z"/></g></g></svg>